<svg width="840" height="279" viewBox="0 0 840 279" fill="none" xmlns="http://www.w3.org/2000/svg">
<path d="M40.064 174.268C49.4507 174.268 57.6853 176.102 64.768 179.772C71.936 183.441 77.44 188.689 81.28 195.516C85.2053 202.257 87.168 210.108 87.168 219.068C87.168 228.028 85.2053 235.878 81.28 242.62C77.44 249.276 71.936 254.438 64.768 258.108C57.6853 261.777 49.4507 263.612 40.064 263.612H8.832V174.268H40.064ZM39.424 248.38C48.8107 248.38 56.064 245.82 61.184 240.7C66.304 235.58 68.864 228.369 68.864 219.068C68.864 209.766 66.304 202.513 61.184 197.308C56.064 192.017 48.8107 189.372 39.424 189.372H26.752V248.38H39.424ZM85.734 227.9C85.734 220.732 87.142 214.374 89.958 208.828C92.8593 203.281 96.742 199.014 101.606 196.028C106.555 193.041 112.059 191.548 118.118 191.548C123.409 191.548 128.017 192.614 131.942 194.748C135.953 196.881 139.153 199.569 141.542 202.812V192.7H159.59V263.612H141.542V253.244C139.238 256.572 136.038 259.345 131.942 261.564C127.931 263.697 123.281 264.764 117.99 264.764C112.017 264.764 106.555 263.228 101.606 260.156C96.742 257.084 92.8593 252.774 89.958 247.228C87.142 241.596 85.734 235.153 85.734 227.9ZM141.542 228.156C141.542 223.804 140.689 220.092 138.982 217.02C137.275 213.862 134.971 211.473 132.07 209.852C129.169 208.145 126.054 207.292 122.726 207.292C119.398 207.292 116.326 208.102 113.51 209.724C110.694 211.345 108.39 213.734 106.598 216.892C104.891 219.964 104.038 223.633 104.038 227.9C104.038 232.166 104.891 235.921 106.598 239.164C108.39 242.321 110.694 244.753 113.51 246.46C116.411 248.166 119.483 249.02 122.726 249.02C126.054 249.02 129.169 248.209 132.07 246.588C134.971 244.881 137.275 242.492 138.982 239.42C140.689 236.262 141.542 232.508 141.542 228.156ZM206.148 191.676C214.596 191.676 221.423 194.364 226.628 199.74C231.833 205.03 234.436 212.454 234.436 222.012V263.612H216.516V224.444C216.516 218.812 215.108 214.502 212.292 211.516C209.476 208.444 205.636 206.908 200.772 206.908C195.823 206.908 191.897 208.444 188.996 211.516C186.18 214.502 184.772 218.812 184.772 224.444V263.612H166.852V192.7H184.772V201.532C187.161 198.46 190.191 196.07 193.86 194.364C197.615 192.572 201.711 191.676 206.148 191.676ZM250.325 184.252C247.168 184.252 244.522 183.27 242.389 181.308C240.341 179.26 239.317 176.742 239.317 173.756C239.317 170.769 240.341 168.294 242.389 166.332C244.522 164.284 247.168 163.26 250.325 163.26C253.482 163.26 256.085 164.284 258.133 166.332C260.266 168.294 261.333 170.769 261.333 173.756C261.333 176.742 260.266 179.26 258.133 181.308C256.085 183.27 253.482 184.252 250.325 184.252ZM259.157 192.7V263.612H241.237V192.7H259.157ZM334.462 192.7L290.558 297.148H271.486L286.846 261.82L258.43 192.7H278.526L296.83 242.236L315.39 192.7H334.462ZM329.274 227.9C329.274 220.732 330.682 214.374 333.498 208.828C336.399 203.281 340.282 199.014 345.146 196.028C350.095 193.041 355.599 191.548 361.658 191.548C366.949 191.548 371.557 192.614 375.482 194.748C379.493 196.881 382.693 199.569 385.082 202.812V192.7H403.13V263.612H385.082V253.244C382.778 256.572 379.578 259.345 375.482 261.564C371.471 263.697 366.821 264.764 361.53 264.764C355.557 264.764 350.095 263.228 345.146 260.156C340.282 257.084 336.399 252.774 333.498 247.228C330.682 241.596 329.274 235.153 329.274 227.9ZM385.082 228.156C385.082 223.804 384.229 220.092 382.522 217.02C380.815 213.862 378.511 211.473 375.61 209.852C372.709 208.145 369.594 207.292 366.266 207.292C362.938 207.292 359.866 208.102 357.05 209.724C354.234 211.345 351.93 213.734 350.138 216.892C348.431 219.964 347.578 223.633 347.578 227.9C347.578 232.166 348.431 235.921 350.138 239.164C351.93 242.321 354.234 244.753 357.05 246.46C359.951 248.166 363.023 249.02 366.266 249.02C369.594 249.02 372.709 248.209 375.61 246.588C378.511 244.881 380.815 242.492 382.522 239.42C384.229 236.262 385.082 232.508 385.082 228.156ZM428.312 168.892V263.612H410.392V168.892H428.312ZM510.821 246.588H475.237L469.349 263.612H450.533L482.661 174.14H503.525L535.653 263.612H516.709L510.821 246.588ZM505.957 232.252L493.029 194.876L480.101 232.252H505.957ZM555.342 203.708C557.646 199.953 560.633 197.009 564.302 194.876C568.057 192.742 572.323 191.676 577.102 191.676V210.492H572.366C566.734 210.492 562.467 211.814 559.566 214.46C556.75 217.105 555.342 221.713 555.342 228.284V263.612H537.422V192.7H555.342V203.708ZM606.068 264.764C600.265 264.764 595.06 263.74 590.452 261.692C585.844 259.558 582.175 256.7 579.444 253.116C576.799 249.532 575.348 245.564 575.092 241.212H593.14C593.481 243.942 594.804 246.204 597.108 247.996C599.497 249.788 602.441 250.684 605.94 250.684C609.353 250.684 611.999 250.001 613.876 248.636C615.839 247.27 616.82 245.521 616.82 243.388C616.82 241.084 615.625 239.377 613.236 238.268C610.932 237.073 607.22 235.793 602.1 234.428C596.809 233.148 592.457 231.825 589.044 230.46C585.716 229.094 582.815 227.004 580.34 224.188C577.951 221.372 576.756 217.574 576.756 212.796C576.756 208.87 577.865 205.286 580.084 202.044C582.388 198.801 585.631 196.241 589.812 194.364C594.079 192.486 599.071 191.548 604.788 191.548C613.236 191.548 619.977 193.681 625.012 197.948C630.047 202.129 632.82 207.804 633.332 214.972H616.18C615.924 212.156 614.729 209.937 612.596 208.316C610.548 206.609 607.775 205.756 604.276 205.756C601.033 205.756 598.516 206.353 596.724 207.548C595.017 208.742 594.164 210.406 594.164 212.54C594.164 214.929 595.359 216.764 597.748 218.044C600.137 219.238 603.849 220.476 608.884 221.756C614.004 223.036 618.228 224.358 621.556 225.724C624.884 227.089 627.743 229.222 630.132 232.124C632.607 234.94 633.887 238.694 633.972 243.388C633.972 247.484 632.82 251.153 630.516 254.396C628.297 257.638 625.055 260.198 620.788 262.076C616.607 263.868 611.7 264.764 606.068 264.764ZM678.378 191.676C683.754 191.676 688.533 192.87 692.714 195.26C696.895 197.564 700.138 201.02 702.442 205.628C704.831 210.15 706.026 215.612 706.026 222.012V263.612H688.106V224.444C688.106 218.812 686.698 214.502 683.882 211.516C681.066 208.444 677.226 206.908 672.362 206.908C667.413 206.908 663.487 208.444 660.586 211.516C657.77 214.502 656.362 218.812 656.362 224.444V263.612H638.442V168.892H656.362V201.532C658.666 198.46 661.738 196.07 665.578 194.364C669.418 192.572 673.685 191.676 678.378 191.676ZM708.219 227.9C708.219 220.732 709.627 214.374 712.443 208.828C715.344 203.281 719.227 199.014 724.091 196.028C729.04 193.041 734.544 191.548 740.603 191.548C745.894 191.548 750.502 192.614 754.427 194.748C758.438 196.881 761.638 199.569 764.027 202.812V192.7H782.075V263.612H764.027V253.244C761.723 256.572 758.523 259.345 754.427 261.564C750.416 263.697 745.766 264.764 740.475 264.764C734.502 264.764 729.04 263.228 724.091 260.156C719.227 257.084 715.344 252.774 712.443 247.228C709.627 241.596 708.219 235.153 708.219 227.9ZM764.027 228.156C764.027 223.804 763.174 220.092 761.467 217.02C759.76 213.862 757.456 211.473 754.555 209.852C751.654 208.145 748.539 207.292 745.211 207.292C741.883 207.292 738.811 208.102 735.995 209.724C733.179 211.345 730.875 213.734 729.083 216.892C727.376 219.964 726.523 223.633 726.523 227.9C726.523 232.166 727.376 235.921 729.083 239.164C730.875 242.321 733.179 244.753 735.995 246.46C738.896 248.166 741.968 249.02 745.211 249.02C748.539 249.02 751.654 248.209 754.555 246.588C757.456 244.881 759.76 242.492 761.467 239.42C763.174 236.262 764.027 232.508 764.027 228.156ZM784.729 228.028C784.729 220.945 786.18 214.673 789.081 209.212C792.068 203.665 796.078 199.356 801.113 196.284C806.148 193.212 811.694 191.676 817.753 191.676C822.788 191.676 827.225 192.657 831.065 194.62C834.99 196.497 838.148 198.929 840.537 201.916V192.7H858.585V297.404H840.537V253.884C838.148 256.956 834.948 259.516 830.937 261.564C826.926 263.612 822.404 264.636 817.369 264.636C811.396 264.636 805.892 263.1 800.857 260.028C795.908 256.87 791.982 252.518 789.081 246.972C786.18 241.425 784.729 235.11 784.729 228.028ZM840.537 228.156C840.537 223.804 839.641 220.049 837.849 216.892C836.057 213.734 833.71 211.345 830.809 209.724C827.993 208.102 824.964 207.292 821.721 207.292C818.564 207.292 815.534 208.102 812.633 209.724C809.817 211.345 807.513 213.734 805.721 216.892C803.929 219.964 803.033 223.676 803.033 228.028C803.033 232.38 803.929 236.177 805.721 239.42C807.513 242.577 809.817 244.966 812.633 246.588C815.534 248.209 818.564 249.02 821.721 249.02C824.964 249.02 827.993 248.209 830.809 246.588C833.71 244.966 836.057 242.577 837.849 239.42C839.641 236.262 840.537 232.508 840.537 228.156Z" fill="#121212"/>
<path d="M122 37.0728L70.5303 90.1202L65.8512 94.8091V141.699L122 85.4312V37.0728Z" fill="black" stroke="#F9F9F9" stroke-width="3"/>
<path d="M43 3.61182L94.769 55.1903L99.4753 59.8792V106.769L43 50.5013V3.61182Z" fill="black" stroke="#F9F9F9" stroke-width="3"/>
</svg>
