<svg width="832" height="116" viewBox="0 0 832 116" fill="none" xmlns="http://www.w3.org/2000/svg">
<path d="M31.232 11.008C40.6187 11.008 48.8533 12.8427 55.936 16.512C63.104 20.1814 68.608 25.4294 72.448 32.2561C76.3733 38.9974 78.336 46.848 78.336 55.808C78.336 64.768 76.3733 72.6187 72.448 79.3601C68.608 86.0161 63.104 91.1787 55.936 94.8481C48.8533 98.5174 40.6187 100.352 31.232 100.352H0V11.008H31.232ZM30.592 85.1201C39.9787 85.1201 47.232 82.5601 52.352 77.4401C57.472 72.32 60.032 65.1094 60.032 55.808C60.032 46.5067 57.472 39.2534 52.352 34.048C47.232 28.7574 39.9787 26.112 30.592 26.112H17.92V85.1201H30.592ZM76.902 64.64C76.902 57.472 78.31 51.1147 81.126 45.568C84.0273 40.0214 87.91 35.7547 92.774 32.7681C97.7233 29.7814 103.227 28.288 109.286 28.288C114.577 28.288 119.185 29.3547 123.11 31.488C127.121 33.6214 130.321 36.3094 132.71 39.552V29.44H150.758V100.352H132.71V89.9841C130.406 93.3121 127.206 96.0854 123.11 98.3041C119.099 100.437 114.449 101.504 109.158 101.504C103.185 101.504 97.7233 99.9681 92.774 96.8961C87.91 93.8241 84.0273 89.5147 81.126 83.9681C78.31 78.3361 76.902 71.8934 76.902 64.64ZM132.71 64.896C132.71 60.544 131.857 56.832 130.15 53.76C128.443 50.6027 126.139 48.2134 123.238 46.592C120.337 44.8854 117.222 44.032 113.894 44.032C110.566 44.032 107.494 44.8427 104.678 46.464C101.862 48.0854 99.558 50.4747 97.766 53.632C96.0593 56.704 95.206 60.3734 95.206 64.64C95.206 68.9067 96.0593 72.6614 97.766 75.904C99.558 79.0614 101.862 81.4934 104.678 83.2001C107.579 84.9067 110.651 85.76 113.894 85.76C117.222 85.76 120.337 84.9494 123.238 83.3281C126.139 81.6214 128.443 79.232 130.15 76.16C131.857 73.0027 132.71 69.248 132.71 64.896ZM197.316 28.416C205.764 28.416 212.591 31.104 217.796 36.48C223.001 41.7707 225.604 49.1947 225.604 58.752V100.352H207.684V61.184C207.684 55.552 206.276 51.2427 203.46 48.2561C200.644 45.184 196.804 43.648 191.94 43.648C186.991 43.648 183.065 45.184 180.164 48.2561C177.348 51.2427 175.94 55.552 175.94 61.184V100.352H158.02V29.44H175.94V38.272C178.329 35.2 181.359 32.8107 185.028 31.104C188.783 29.312 192.879 28.416 197.316 28.416ZM241.493 20.9921C238.336 20.9921 235.69 20.0107 233.557 18.048C231.509 16 230.485 13.4827 230.485 10.496C230.485 7.50938 231.509 5.03471 233.557 3.07204C235.69 1.02405 238.336 4.57764e-05 241.493 4.57764e-05C244.65 4.57764e-05 247.253 1.02405 249.301 3.07204C251.434 5.03471 252.501 7.50938 252.501 10.496C252.501 13.4827 251.434 16 249.301 18.048C247.253 20.0107 244.65 20.9921 241.493 20.9921ZM250.325 29.44V100.352H232.405V29.44H250.325ZM325.63 29.44L281.726 133.888H262.654L278.014 98.5601L249.598 29.44H269.694L287.998 78.976L306.558 29.44H325.63ZM320.442 64.64C320.442 57.472 321.85 51.1147 324.666 45.568C327.567 40.0214 331.45 35.7547 336.314 32.7681C341.263 29.7814 346.767 28.288 352.826 28.288C358.117 28.288 362.725 29.3547 366.65 31.488C370.661 33.6214 373.861 36.3094 376.25 39.552V29.44H394.298V100.352H376.25V89.9841C373.946 93.3121 370.746 96.0854 366.65 98.3041C362.639 100.437 357.989 101.504 352.698 101.504C346.725 101.504 341.263 99.9681 336.314 96.8961C331.45 93.8241 327.567 89.5147 324.666 83.9681C321.85 78.3361 320.442 71.8934 320.442 64.64ZM376.25 64.896C376.25 60.544 375.397 56.832 373.69 53.76C371.983 50.6027 369.679 48.2134 366.778 46.592C363.877 44.8854 360.762 44.032 357.434 44.032C354.106 44.032 351.034 44.8427 348.218 46.464C345.402 48.0854 343.098 50.4747 341.306 53.632C339.599 56.704 338.746 60.3734 338.746 64.64C338.746 68.9067 339.599 72.6614 341.306 75.904C343.098 79.0614 345.402 81.4934 348.218 83.2001C351.119 84.9067 354.191 85.76 357.434 85.76C360.762 85.76 363.877 84.9494 366.778 83.3281C369.679 81.6214 371.983 79.232 373.69 76.16C375.397 73.0027 376.25 69.248 376.25 64.896ZM419.48 5.63205V100.352H401.56V5.63205H419.48ZM501.989 83.3281H466.405L460.517 100.352H441.701L473.829 10.88H494.693L526.821 100.352H507.877L501.989 83.3281ZM497.125 68.9921L484.197 31.6161L471.269 68.9921H497.125ZM546.51 40.448C548.814 36.6934 551.801 33.7494 555.47 31.6161C559.225 29.4827 563.491 28.416 568.27 28.416V47.232H563.534C557.902 47.232 553.635 48.5547 550.734 51.2001C547.918 53.8454 546.51 58.4534 546.51 65.024V100.352H528.59V29.44H546.51V40.448ZM597.236 101.504C591.433 101.504 586.228 100.48 581.62 98.4321C577.012 96.2987 573.343 93.4401 570.612 89.8561C567.967 86.2721 566.516 82.304 566.26 77.952H584.308C584.649 80.6827 585.972 82.944 588.276 84.736C590.665 86.5281 593.609 87.4241 597.108 87.4241C600.521 87.4241 603.167 86.7414 605.044 85.376C607.007 84.0107 607.988 82.2614 607.988 80.128C607.988 77.8241 606.793 76.1174 604.404 75.008C602.1 73.8134 598.388 72.5334 593.268 71.168C587.977 69.888 583.625 68.5654 580.212 67.2001C576.884 65.8347 573.983 63.744 571.508 60.928C569.119 58.112 567.924 54.3147 567.924 49.536C567.924 45.6107 569.033 42.0267 571.252 38.784C573.556 35.5414 576.799 32.9814 580.98 31.104C585.247 29.2267 590.239 28.288 595.956 28.288C604.404 28.288 611.145 30.4214 616.18 34.688C621.215 38.8694 623.988 44.544 624.5 51.712H607.348C607.092 48.896 605.897 46.6774 603.764 45.056C601.716 43.3494 598.943 42.496 595.444 42.496C592.201 42.496 589.684 43.0934 587.892 44.288C586.185 45.4827 585.332 47.1467 585.332 49.28C585.332 51.6694 586.527 53.504 588.916 54.784C591.305 55.9787 595.017 57.216 600.052 58.496C605.172 59.776 609.396 61.0987 612.724 62.4641C616.052 63.8294 618.911 65.9627 621.3 68.864C623.775 71.68 625.055 75.4347 625.14 80.128C625.14 84.224 623.988 87.8934 621.684 91.1361C619.465 94.3787 616.223 96.9387 611.956 98.8161C607.775 100.608 602.868 101.504 597.236 101.504ZM669.546 28.416C674.922 28.416 679.701 29.6107 683.882 32C688.063 34.304 691.306 37.76 693.61 42.368C695.999 46.8907 697.194 52.352 697.194 58.752V100.352H679.274V61.184C679.274 55.552 677.866 51.2427 675.05 48.2561C672.234 45.184 668.394 43.648 663.53 43.648C658.581 43.648 654.655 45.184 651.754 48.2561C648.938 51.2427 647.53 55.552 647.53 61.184V100.352H629.61V5.63205H647.53V38.272C649.834 35.2 652.906 32.8107 656.746 31.104C660.586 29.312 664.853 28.416 669.546 28.416ZM699.387 64.64C699.387 57.472 700.795 51.1147 703.611 45.568C706.512 40.0214 710.395 35.7547 715.259 32.7681C720.208 29.7814 725.712 28.288 731.771 28.288C737.062 28.288 741.67 29.3547 745.595 31.488C749.606 33.6214 752.806 36.3094 755.195 39.552V29.44H773.243V100.352H755.195V89.9841C752.891 93.3121 749.691 96.0854 745.595 98.3041C741.584 100.437 736.934 101.504 731.643 101.504C725.67 101.504 720.208 99.9681 715.259 96.8961C710.395 93.8241 706.512 89.5147 703.611 83.9681C700.795 78.3361 699.387 71.8934 699.387 64.64ZM755.195 64.896C755.195 60.544 754.342 56.832 752.635 53.76C750.928 50.6027 748.624 48.2134 745.723 46.592C742.822 44.8854 739.707 44.032 736.379 44.032C733.051 44.032 729.979 44.8427 727.163 46.464C724.347 48.0854 722.043 50.4747 720.251 53.632C718.544 56.704 717.691 60.3734 717.691 64.64C717.691 68.9067 718.544 72.6614 720.251 75.904C722.043 79.0614 724.347 81.4934 727.163 83.2001C730.064 84.9067 733.136 85.76 736.379 85.76C739.707 85.76 742.822 84.9494 745.723 83.3281C748.624 81.6214 750.928 79.232 752.635 76.16C754.342 73.0027 755.195 69.248 755.195 64.896ZM775.897 64.768C775.897 57.6854 777.348 51.4134 780.249 45.952C783.236 40.4054 787.246 36.096 792.281 33.024C797.316 29.952 802.862 28.416 808.921 28.416C813.956 28.416 818.393 29.3974 822.233 31.36C826.158 33.2374 829.316 35.6694 831.705 38.656V29.44H849.753V134.144H831.705V90.6241C829.316 93.6961 826.116 96.2561 822.105 98.3041C818.094 100.352 813.572 101.376 808.537 101.376C802.564 101.376 797.06 99.8401 792.025 96.7681C787.076 93.6107 783.15 89.2587 780.249 83.712C777.348 78.1654 775.897 71.8507 775.897 64.768ZM831.705 64.896C831.705 60.544 830.809 56.7894 829.017 53.632C827.225 50.4747 824.878 48.0854 821.977 46.464C819.161 44.8427 816.132 44.032 812.889 44.032C809.732 44.032 806.702 44.8427 803.801 46.464C800.985 48.0854 798.681 50.4747 796.889 53.632C795.097 56.704 794.201 60.416 794.201 64.768C794.201 69.12 795.097 72.9174 796.889 76.16C798.681 79.3174 800.985 81.7067 803.801 83.3281C806.702 84.9494 809.732 85.76 812.889 85.76C816.132 85.76 819.161 84.9494 821.977 83.3281C824.878 81.7067 827.225 79.3174 829.017 76.16C830.809 73.0027 831.705 69.248 831.705 64.896Z" fill="#121212"/>
</svg>
