<svg width="1366" height="298" viewBox="0 0 1366 298" fill="none" xmlns="http://www.w3.org/2000/svg">
<path d="M40.064 174.268C49.4507 174.268 57.6853 176.102 64.768 179.772C71.936 183.441 77.44 188.689 81.28 195.516C85.2053 202.257 87.168 210.108 87.168 219.068C87.168 228.028 85.2053 235.878 81.28 242.62C77.44 249.276 71.936 254.438 64.768 258.108C57.6853 261.777 49.4507 263.612 40.064 263.612H8.832V174.268H40.064ZM39.424 248.38C48.8107 248.38 56.064 245.82 61.184 240.7C66.304 235.58 68.864 228.369 68.864 219.068C68.864 209.766 66.304 202.513 61.184 197.308C56.064 192.017 48.8107 189.372 39.424 189.372H26.752V248.38H39.424ZM85.734 227.9C85.734 220.732 87.142 214.374 89.958 208.828C92.8593 203.281 96.742 199.014 101.606 196.028C106.555 193.041 112.059 191.548 118.118 191.548C123.409 191.548 128.017 192.614 131.942 194.748C135.953 196.881 139.153 199.569 141.542 202.812V192.7H159.59V263.612H141.542V253.244C139.238 256.572 136.038 259.345 131.942 261.564C127.931 263.697 123.281 264.764 117.99 264.764C112.017 264.764 106.555 263.228 101.606 260.156C96.742 257.084 92.8593 252.774 89.958 247.228C87.142 241.596 85.734 235.153 85.734 227.9ZM141.542 228.156C141.542 223.804 140.689 220.092 138.982 217.02C137.275 213.862 134.971 211.473 132.07 209.852C129.169 208.145 126.054 207.292 122.726 207.292C119.398 207.292 116.326 208.102 113.51 209.724C110.694 211.345 108.39 213.734 106.598 216.892C104.891 219.964 104.038 223.633 104.038 227.9C104.038 232.166 104.891 235.921 106.598 239.164C108.39 242.321 110.694 244.753 113.51 246.46C116.411 248.166 119.483 249.02 122.726 249.02C126.054 249.02 129.169 248.209 132.07 246.588C134.971 244.881 137.275 242.492 138.982 239.42C140.689 236.262 141.542 232.508 141.542 228.156ZM206.148 191.676C214.596 191.676 221.423 194.364 226.628 199.74C231.833 205.03 234.436 212.454 234.436 222.012V263.612H216.516V224.444C216.516 218.812 215.108 214.502 212.292 211.516C209.476 208.444 205.636 206.908 200.772 206.908C195.823 206.908 191.897 208.444 188.996 211.516C186.18 214.502 184.772 218.812 184.772 224.444V263.612H166.852V192.7H184.772V201.532C187.161 198.46 190.191 196.07 193.86 194.364C197.615 192.572 201.711 191.676 206.148 191.676ZM250.325 184.252C247.168 184.252 244.522 183.27 242.389 181.308C240.341 179.26 239.317 176.742 239.317 173.756C239.317 170.769 240.341 168.294 242.389 166.332C244.522 164.284 247.168 163.26 250.325 163.26C253.482 163.26 256.085 164.284 258.133 166.332C260.266 168.294 261.333 170.769 261.333 173.756C261.333 176.742 260.266 179.26 258.133 181.308C256.085 183.27 253.482 184.252 250.325 184.252ZM259.157 192.7V263.612H241.237V192.7H259.157ZM334.462 192.7L290.558 297.148H271.486L286.846 261.82L258.43 192.7H278.526L296.83 242.236L315.39 192.7H334.462ZM329.274 227.9C329.274 220.732 330.682 214.374 333.498 208.828C336.399 203.281 340.282 199.014 345.146 196.028C350.095 193.041 355.599 191.548 361.658 191.548C366.949 191.548 371.557 192.614 375.482 194.748C379.493 196.881 382.693 199.569 385.082 202.812V192.7H403.13V263.612H385.082V253.244C382.778 256.572 379.578 259.345 375.482 261.564C371.471 263.697 366.821 264.764 361.53 264.764C355.557 264.764 350.095 263.228 345.146 260.156C340.282 257.084 336.399 252.774 333.498 247.228C330.682 241.596 329.274 235.153 329.274 227.9ZM385.082 228.156C385.082 223.804 384.229 220.092 382.522 217.02C380.815 213.862 378.511 211.473 375.61 209.852C372.709 208.145 369.594 207.292 366.266 207.292C362.938 207.292 359.866 208.102 357.05 209.724C354.234 211.345 351.93 213.734 350.138 216.892C348.431 219.964 347.578 223.633 347.578 227.9C347.578 232.166 348.431 235.921 350.138 239.164C351.93 242.321 354.234 244.753 357.05 246.46C359.951 248.166 363.023 249.02 366.266 249.02C369.594 249.02 372.709 248.209 375.61 246.588C378.511 244.881 380.815 242.492 382.522 239.42C384.229 236.262 385.082 232.508 385.082 228.156ZM428.312 168.892V263.612H410.392V168.892H428.312ZM510.821 246.588H475.237L469.349 263.612H450.533L482.661 174.14H503.525L535.653 263.612H516.709L510.821 246.588ZM505.957 232.252L493.029 194.876L480.101 232.252H505.957ZM555.342 203.708C557.646 199.953 560.633 197.009 564.302 194.876C568.057 192.742 572.323 191.676 577.102 191.676V210.492H572.366C566.734 210.492 562.467 211.814 559.566 214.46C556.75 217.105 555.342 221.713 555.342 228.284V263.612H537.422V192.7H555.342V203.708ZM606.068 264.764C600.265 264.764 595.06 263.74 590.452 261.692C585.844 259.558 582.175 256.7 579.444 253.116C576.799 249.532 575.348 245.564 575.092 241.212H593.14C593.481 243.942 594.804 246.204 597.108 247.996C599.497 249.788 602.441 250.684 605.94 250.684C609.353 250.684 611.999 250.001 613.876 248.636C615.839 247.27 616.82 245.521 616.82 243.388C616.82 241.084 615.625 239.377 613.236 238.268C610.932 237.073 607.22 235.793 602.1 234.428C596.809 233.148 592.457 231.825 589.044 230.46C585.716 229.094 582.815 227.004 580.34 224.188C577.951 221.372 576.756 217.574 576.756 212.796C576.756 208.87 577.865 205.286 580.084 202.044C582.388 198.801 585.631 196.241 589.812 194.364C594.079 192.486 599.071 191.548 604.788 191.548C613.236 191.548 619.977 193.681 625.012 197.948C630.047 202.129 632.82 207.804 633.332 214.972H616.18C615.924 212.156 614.729 209.937 612.596 208.316C610.548 206.609 607.775 205.756 604.276 205.756C601.033 205.756 598.516 206.353 596.724 207.548C595.017 208.742 594.164 210.406 594.164 212.54C594.164 214.929 595.359 216.764 597.748 218.044C600.137 219.238 603.849 220.476 608.884 221.756C614.004 223.036 618.228 224.358 621.556 225.724C624.884 227.089 627.743 229.222 630.132 232.124C632.607 234.94 633.887 238.694 633.972 243.388C633.972 247.484 632.82 251.153 630.516 254.396C628.297 257.638 625.055 260.198 620.788 262.076C616.607 263.868 611.7 264.764 606.068 264.764ZM678.378 191.676C683.754 191.676 688.533 192.87 692.714 195.26C696.895 197.564 700.138 201.02 702.442 205.628C704.831 210.15 706.026 215.612 706.026 222.012V263.612H688.106V224.444C688.106 218.812 686.698 214.502 683.882 211.516C681.066 208.444 677.226 206.908 672.362 206.908C667.413 206.908 663.487 208.444 660.586 211.516C657.77 214.502 656.362 218.812 656.362 224.444V263.612H638.442V168.892H656.362V201.532C658.666 198.46 661.738 196.07 665.578 194.364C669.418 192.572 673.685 191.676 678.378 191.676ZM708.219 227.9C708.219 220.732 709.627 214.374 712.443 208.828C715.344 203.281 719.227 199.014 724.091 196.028C729.04 193.041 734.544 191.548 740.603 191.548C745.894 191.548 750.502 192.614 754.427 194.748C758.438 196.881 761.638 199.569 764.027 202.812V192.7H782.075V263.612H764.027V253.244C761.723 256.572 758.523 259.345 754.427 261.564C750.416 263.697 745.766 264.764 740.475 264.764C734.502 264.764 729.04 263.228 724.091 260.156C719.227 257.084 715.344 252.774 712.443 247.228C709.627 241.596 708.219 235.153 708.219 227.9ZM764.027 228.156C764.027 223.804 763.174 220.092 761.467 217.02C759.76 213.862 757.456 211.473 754.555 209.852C751.654 208.145 748.539 207.292 745.211 207.292C741.883 207.292 738.811 208.102 735.995 209.724C733.179 211.345 730.875 213.734 729.083 216.892C727.376 219.964 726.523 223.633 726.523 227.9C726.523 232.166 727.376 235.921 729.083 239.164C730.875 242.321 733.179 244.753 735.995 246.46C738.896 248.166 741.968 249.02 745.211 249.02C748.539 249.02 751.654 248.209 754.555 246.588C757.456 244.881 759.76 242.492 761.467 239.42C763.174 236.262 764.027 232.508 764.027 228.156ZM784.729 228.028C784.729 220.945 786.18 214.673 789.081 209.212C792.068 203.665 796.078 199.356 801.113 196.284C806.148 193.212 811.694 191.676 817.753 191.676C822.788 191.676 827.225 192.657 831.065 194.62C834.99 196.497 838.148 198.929 840.537 201.916V192.7H858.585V297.404H840.537V253.884C838.148 256.956 834.948 259.516 830.937 261.564C826.926 263.612 822.404 264.636 817.369 264.636C811.396 264.636 805.892 263.1 800.857 260.028C795.908 256.87 791.982 252.518 789.081 246.972C786.18 241.425 784.729 235.11 784.729 228.028ZM840.537 228.156C840.537 223.804 839.641 220.049 837.849 216.892C836.057 213.734 833.71 211.345 830.809 209.724C827.993 208.102 824.964 207.292 821.721 207.292C818.564 207.292 815.534 208.102 812.633 209.724C809.817 211.345 807.513 213.734 805.721 216.892C803.929 219.964 803.033 223.676 803.033 228.028C803.033 232.38 803.929 236.177 805.721 239.42C807.513 242.577 809.817 244.966 812.633 246.588C815.534 248.209 818.564 249.02 821.721 249.02C824.964 249.02 827.993 248.209 830.809 246.588C833.71 244.966 836.057 242.577 837.849 239.42C839.641 236.262 840.537 232.508 840.537 228.156ZM916.955 264.508C910.726 264.508 905.094 263.441 900.059 261.308C895.11 259.174 891.184 256.102 888.283 252.092C885.382 248.081 883.888 243.345 883.803 237.884H903.003C903.259 241.553 904.539 244.454 906.843 246.588C909.232 248.721 912.475 249.788 916.571 249.788C920.752 249.788 924.038 248.806 926.427 246.844C928.816 244.796 930.011 242.15 930.011 238.908C930.011 236.262 929.2 234.086 927.579 232.38C925.958 230.673 923.91 229.35 921.435 228.412C919.046 227.388 915.718 226.278 911.451 225.084C905.648 223.377 900.912 221.713 897.243 220.092C893.659 218.385 890.544 215.868 887.899 212.54C885.339 209.126 884.059 204.604 884.059 198.972C884.059 193.681 885.382 189.073 888.027 185.148C890.672 181.222 894.384 178.236 899.163 176.188C903.942 174.054 909.403 172.988 915.547 172.988C924.763 172.988 932.23 175.249 937.947 179.772C943.75 184.209 946.95 190.438 947.547 198.46H927.835C927.664 195.388 926.342 192.87 923.867 190.908C921.478 188.86 918.278 187.836 914.267 187.836C910.768 187.836 907.952 188.732 905.819 190.524C903.771 192.316 902.747 194.918 902.747 198.332C902.747 200.721 903.515 202.726 905.051 204.348C906.672 205.884 908.635 207.164 910.939 208.188C913.328 209.126 916.656 210.236 920.923 211.516C926.726 213.222 931.462 214.929 935.131 216.636C938.8 218.342 941.958 220.902 944.603 224.316C947.248 227.729 948.571 232.209 948.571 237.756C948.571 242.534 947.334 246.972 944.859 251.068C942.384 255.164 938.758 258.449 933.979 260.924C929.2 263.313 923.526 264.508 916.955 264.508ZM1020.81 192.7V263.612H1002.76V254.652C1000.46 257.724 997.43 260.156 993.675 261.948C990.006 263.654 985.995 264.508 981.643 264.508C976.096 264.508 971.19 263.356 966.923 261.052C962.656 258.662 959.286 255.206 956.811 250.684C954.422 246.076 953.227 240.614 953.227 234.3V192.7H971.147V231.74C971.147 237.372 972.555 241.724 975.371 244.796C978.187 247.782 982.027 249.276 986.891 249.276C991.84 249.276 995.723 247.782 998.539 244.796C1001.36 241.724 1002.76 237.372 1002.76 231.74V192.7H1020.81ZM1023.64 227.9C1023.64 220.732 1025.05 214.374 1027.87 208.828C1030.77 203.281 1034.69 199.014 1039.64 196.028C1044.59 193.041 1050.1 191.548 1056.16 191.548C1060.76 191.548 1065.16 192.572 1069.34 194.62C1073.52 196.582 1076.85 199.228 1079.32 202.556V168.892H1097.5V263.612H1079.32V253.116C1077.11 256.614 1073.99 259.43 1069.98 261.564C1065.97 263.697 1061.32 264.764 1056.03 264.764C1050.05 264.764 1044.59 263.228 1039.64 260.156C1034.69 257.084 1030.77 252.774 1027.87 247.228C1025.05 241.596 1023.64 235.153 1023.64 227.9ZM1079.45 228.156C1079.45 223.804 1078.6 220.092 1076.89 217.02C1075.19 213.862 1072.88 211.473 1069.98 209.852C1067.08 208.145 1063.96 207.292 1060.64 207.292C1057.31 207.292 1054.24 208.102 1051.42 209.724C1048.6 211.345 1046.3 213.734 1044.51 216.892C1042.8 219.964 1041.95 223.633 1041.95 227.9C1041.95 232.166 1042.8 235.921 1044.51 239.164C1046.3 242.321 1048.6 244.753 1051.42 246.46C1054.32 248.166 1057.39 249.02 1060.64 249.02C1063.96 249.02 1067.08 248.209 1069.98 246.588C1072.88 244.881 1075.19 242.492 1076.89 239.42C1078.6 236.262 1079.45 232.508 1079.45 228.156ZM1122.68 203.708C1124.99 199.953 1127.97 197.009 1131.64 194.876C1135.4 192.742 1139.66 191.676 1144.44 191.676V210.492H1139.71C1134.07 210.492 1129.81 211.814 1126.91 214.46C1124.09 217.105 1122.68 221.713 1122.68 228.284V263.612H1104.76V192.7H1122.68V203.708ZM1141.66 227.9C1141.66 220.732 1143.07 214.374 1145.89 208.828C1148.79 203.281 1152.67 199.014 1157.54 196.028C1162.49 193.041 1167.99 191.548 1174.05 191.548C1179.34 191.548 1183.95 192.614 1187.87 194.748C1191.88 196.881 1195.08 199.569 1197.47 202.812V192.7H1215.52V263.612H1197.47V253.244C1195.17 256.572 1191.97 259.345 1187.87 261.564C1183.86 263.697 1179.21 264.764 1173.92 264.764C1167.95 264.764 1162.49 263.228 1157.54 260.156C1152.67 257.084 1148.79 252.774 1145.89 247.228C1143.07 241.596 1141.66 235.153 1141.66 227.9ZM1197.47 228.156C1197.47 223.804 1196.62 220.092 1194.91 217.02C1193.21 213.862 1190.9 211.473 1188 209.852C1185.1 208.145 1181.98 207.292 1178.66 207.292C1175.33 207.292 1172.26 208.102 1169.44 209.724C1166.62 211.345 1164.32 213.734 1162.53 216.892C1160.82 219.964 1159.97 223.633 1159.97 227.9C1159.97 232.166 1160.82 235.921 1162.53 239.164C1164.32 242.321 1166.62 244.753 1169.44 246.46C1172.34 248.166 1175.41 249.02 1178.66 249.02C1181.98 249.02 1185.1 248.209 1188 246.588C1190.9 244.881 1193.21 242.492 1194.91 239.42C1196.62 236.262 1197.47 232.508 1197.47 228.156ZM1231.87 184.252C1228.63 184.252 1225.94 183.27 1223.81 181.308C1221.76 179.26 1220.73 176.742 1220.73 173.756C1220.73 170.769 1221.76 168.294 1223.81 166.332C1225.94 164.284 1228.63 163.26 1231.87 163.26C1235.03 163.26 1237.63 164.284 1239.68 166.332C1241.73 168.294 1242.75 170.769 1242.75 173.756C1242.75 176.742 1241.73 179.26 1239.68 181.308C1237.63 183.27 1235.03 184.252 1231.87 184.252ZM1240.7 275.26C1240.7 283.11 1238.74 288.742 1234.81 292.156C1230.97 295.654 1225.43 297.404 1218.17 297.404H1210.24V282.172H1215.36C1218.09 282.172 1220.01 281.617 1221.12 280.508C1222.23 279.484 1222.78 277.777 1222.78 275.388V192.7H1240.7V275.26ZM1243.56 227.9C1243.56 220.732 1244.97 214.374 1247.78 208.828C1250.68 203.281 1254.57 199.014 1259.43 196.028C1264.38 193.041 1269.88 191.548 1275.94 191.548C1281.23 191.548 1285.84 192.614 1289.77 194.748C1293.78 196.881 1296.98 199.569 1299.37 202.812V192.7H1317.41V263.612H1299.37V253.244C1297.06 256.572 1293.86 259.345 1289.77 261.564C1285.76 263.697 1281.11 264.764 1275.81 264.764C1269.84 264.764 1264.38 263.228 1259.43 260.156C1254.57 257.084 1250.68 252.774 1247.78 247.228C1244.97 241.596 1243.56 235.153 1243.56 227.9ZM1299.37 228.156C1299.37 223.804 1298.51 220.092 1296.81 217.02C1295.1 213.862 1292.8 211.473 1289.89 209.852C1286.99 208.145 1283.88 207.292 1280.55 207.292C1277.22 207.292 1274.15 208.102 1271.33 209.724C1268.52 211.345 1266.21 213.734 1264.42 216.892C1262.72 219.964 1261.86 223.633 1261.86 227.9C1261.86 232.166 1262.72 235.921 1264.42 239.164C1266.21 242.321 1268.52 244.753 1271.33 246.46C1274.24 248.166 1277.31 249.02 1280.55 249.02C1283.88 249.02 1286.99 248.209 1289.89 246.588C1292.8 244.881 1295.1 242.492 1296.81 239.42C1298.51 236.262 1299.37 232.508 1299.37 228.156ZM1345.54 207.42V241.724C1345.54 244.113 1346.1 245.862 1347.2 246.972C1348.4 247.996 1350.36 248.508 1353.09 248.508H1361.41V263.612H1350.15C1335.04 263.612 1327.49 256.273 1327.49 241.596V207.42H1319.04V192.7H1327.49V175.164H1345.54V192.7H1361.41V207.42H1345.54Z" fill="#121212"/>
<path d="M122 37.0728L70.5301 90.1202L65.8511 94.8091V141.699L122 85.4312V37.0728Z" fill="black" stroke="#F9F9F9" stroke-width="3"/>
<path d="M43.0001 3.61182L94.7691 55.1903L99.4753 59.8792V106.769L43.0001 50.5013V3.61182Z" fill="black" stroke="#F9F9F9" stroke-width="3"/>
</svg>
